<?xml version="1.0" encoding="UTF-8"?>
<!DOCTYPE svg PUBLIC "-//W3C//DTD SVG 1.1//EN" "http://www.w3.org/Graphics/SVG/1.1/DTD/svg11.dtd">
<!-- Creator: CorelDRAW 2020 (64 Bit) -->
<svg xmlns="http://www.w3.org/2000/svg" xml:space="preserve" width="116.061mm" height="106.998mm" version="1.1" style="shape-rendering:geometricPrecision; text-rendering:geometricPrecision; image-rendering:optimizeQuality; fill-rule:evenodd; clip-rule:evenodd"
viewBox="0 0 2157.27 1988.81"
 xmlns:xlink="http://www.w3.org/1999/xlink"
 xmlns:xodm="http://www.corel.com/coreldraw/odm/2003">
 <defs>
  <style type="text/css">
   <![CDATA[
    .fil2 {fill:#00AFEF}
    .fil1 {fill:#11638A}
    .fil0 {fill:#17629E}
   ]]>
  </style>
 </defs>
 <g id="Camada_x0020_1">
  <metadata id="CorelCorpID_0Corel-Layer"/>
  <path class="fil0" d="M1980.05 1502.36c169.95,-258.68 214.16,-563.48 147.64,-842.53 -28.26,118.51 -77.19,234.22 -147.95,341.92 -327.08,497.84 -995.8,636.27 -1493.64,309.19 -239.16,-157.13 -395.32,-393.12 -456.83,-651.11 -102.36,429.28 67.01,895.4 457.14,1151.72 497.84,327.08 1166.56,188.65 1493.64,-309.19z"/>
  <path class="fil1" d="M1761.41 920.24c12.09,85.98 7.7,173.06 -12.21,256.54 -18.06,-75.75 -49.34,-149.72 -94.57,-218.56 -209.07,-318.22 -636.53,-406.71 -954.75,-197.64 -152.88,100.44 -252.69,251.29 -292.01,416.2 -20.13,-84.41 -23.8,-171.04 -12,-255.31 2.99,21.26 6.98,42.46 12,63.51 39.32,-164.91 139.14,-315.76 292.01,-416.2 318.22,-209.07 745.68,-120.59 954.75,197.64 45.23,68.85 76.51,142.81 94.57,218.56 5.09,-21.37 9.16,-42.98 12.21,-64.74z"/>
  <path class="fil2" d="M1654.83 310.95c108.63,165.35 136.9,360.18 94.37,538.55 -18.06,-75.75 -49.34,-149.72 -94.57,-218.56 -209.07,-318.22 -636.53,-406.71 -954.75,-197.64 -152.87,100.44 -252.69,251.29 -292.01,416.2 -65.43,-274.4 42.83,-572.35 292.21,-736.19 318.22,-209.07 745.68,-120.59 954.75,197.64z"/>
 </g>
</svg>
