<?xml version="1.0" encoding="UTF-8"?>
<!DOCTYPE svg PUBLIC "-//W3C//DTD SVG 1.1//EN" "http://www.w3.org/Graphics/SVG/1.1/DTD/svg11.dtd">
<!-- Creator: CorelDRAW 2020 (64 Bit) -->
<svg xmlns="http://www.w3.org/2000/svg" xml:space="preserve" width="210mm" height="297mm" version="1.1" style="shape-rendering:geometricPrecision; text-rendering:geometricPrecision; image-rendering:optimizeQuality; fill-rule:evenodd; clip-rule:evenodd"
viewBox="0 0 21000 29700"
 xmlns:xlink="http://www.w3.org/1999/xlink"
 xmlns:xodm="http://www.corel.com/coreldraw/odm/2003">
 <defs>
  <style type="text/css">
   <![CDATA[
    .str0 {stroke:#00AFEF;stroke-width:8;stroke-miterlimit:22.9256}
    .fil2 {fill:none}
    .fil3 {fill:#FEFEFE}
    .fil1 {fill:#373435}
    .fil4 {fill:#00AFEF}
    .fil0 {fill:#373435;fill-rule:nonzero}
   ]]>
  </style>
 </defs>
 <g id="Camada_x0020_1">
  <metadata id="CorelCorpID_0Corel-Layer"/>
  <g id="_1787595611520">
   <g>
    <g>
     <path class="fil0" d="M30520.04 8285.14l-4.2 6.18 -1.64 -3.15 0.07 -5.09 0.06 -5.07 0.04 -5.05 0.02 -5.03 0.01 -5.01 0 -4.96 -0.02 -4.93 -0.03 -4.88 -0.04 -4.84 -0.05 -4.78 -0.06 -4.71 -0.07 -4.64 -0.08 -4.57 -0.09 -4.49 -0.09 -4.42 -0.09 -4.33 -0.1 -4.22 -0.11 -4.12 -0.1 -4.03 -0.11 -3.91 -0.11 -3.8 -0.11 -3.67 -0.1 -3.55 -0.11 -3.41 -0.1 -3.28 -0.1 -3.13 -0.09 -2.99 -0.09 -2.83 -0.09 -2.67 -0.07 -2.52 -0.07 -2.33 -0.06 -2.17 7.48 -0.2 0.06 2.15 0.07 2.33 0.07 2.5 0.09 2.67 0.09 2.83 0.09 2.99 0.1 3.13 0.1 3.28 0.11 3.43 0.1 3.55 0.11 3.67 0.11 3.8 0.11 3.93 0.1 4.03 0.11 4.14 0.1 4.24 0.09 4.33 0.09 4.42 0.09 4.51 0.08 4.59 0.07 4.66 0.06 4.73 0.05 4.8 0.04 4.84 0.03 4.9 0.02 4.95 0 4.98 -0.01 5.03 -0.02 5.05 -0.04 5.09 -0.06 5.09 -0.07 5.11 -1.64 -3.15zm-4.2 6.18l-1.67 -1.14 0.03 -2.01 1.64 3.15zm169.76 -20.42l6.68 3.38 0 0 -3.08 5.55 -3.4 5.18 -3.72 4.82 -4.01 4.44 -4.28 4.07 -4.54 3.72 -4.78 3.36 -4.99 3.01 -5.2 2.66 -5.38 2.32 -5.54 1.99 -5.7 1.66 -5.82 1.34 -5.95 1.02 -6.05 0.72 -6.14 0.42 -6.2 0.12 -6.26 -0.15 -6.3 -0.44 -6.34 -0.72 -6.34 -1 -6.34 -1.24 -6.33 -1.51 -6.3 -1.76 -6.24 -2.01 -6.19 -2.25 -6.11 -2.48 -6.02 -2.72 -5.92 -2.94 -5.79 -3.16 -5.67 -3.39 -5.51 -3.59 4.2 -6.18 5.27 3.43 5.41 3.23 5.55 3.02 5.66 2.82 5.76 2.6 5.85 2.38 5.93 2.15 5.98 1.93 6.02 1.68 6.03 1.43 6.06 1.2 6.04 0.94 6.02 0.68 5.98 0.42 5.92 0.15 5.86 -0.12 5.76 -0.38 5.67 -0.68 5.55 -0.96 5.42 -1.24 5.26 -1.54 5.12 -1.83 4.94 -2.12 4.74 -2.44 4.55 -2.73 4.34 -3.06 4.1 -3.36 3.88 -3.69 3.63 -4.02 3.36 -4.36 3.1 -4.7 2.8 -5.07 0 0zm13.21 -77.64l-4.36 6.08 5.34 -5.04 1.47 2.48 1.32 2.49 1.16 2.51 1.02 2.53 0.86 2.55 0.72 2.56 0.6 2.56 0.45 2.59 0.32 2.57 0.21 2.58 0.09 2.58 -0.02 2.58 -0.13 2.58 -0.23 2.56 -0.32 2.56 -0.41 2.56 -0.5 2.55 -0.57 2.53 -0.65 2.53 -0.71 2.51 -0.78 2.51 -0.85 2.48 -0.88 2.47 -0.95 2.47 -0.98 2.45 -1.04 2.43 -1.06 2.42 -1.09 2.39 -1.11 2.38 -1.14 2.36 -1.15 2.33 -1.16 2.33 -6.68 -3.38 1.14 -2.27 1.13 -2.29 1.1 -2.3 1.09 -2.3 1.05 -2.31 1.02 -2.32 0.98 -2.33 0.94 -2.33 0.89 -2.33 0.84 -2.33 0.79 -2.34 0.72 -2.33 0.67 -2.33 0.59 -2.33 0.53 -2.33 0.46 -2.31 0.37 -2.3 0.28 -2.3 0.21 -2.28 0.11 -2.28 0.02 -2.26 -0.07 -2.24 -0.19 -2.24 -0.28 -2.25 -0.39 -2.19 -0.5 -2.2 -0.62 -2.2 -0.74 -2.17 -0.86 -2.17 -1 -2.15 -1.14 -2.15 -1.27 -2.14 5.34 -5.04zm-5.34 5.04l-10.26 -16.26 15.6 11.22 -5.34 5.04zm9.72 70.09l-7 -2.62 0 0 0.73 -1.96 0.74 -2.03 0.74 -2.1 0.75 -2.15 0.74 -2.2 0.72 -2.24 0.69 -2.29 0.68 -2.32 0.64 -2.33 0.59 -2.36 0.56 -2.38 0.49 -2.38 0.44 -2.38 0.37 -2.38 0.29 -2.36 0.23 -2.35 0.13 -2.31 0.05 -2.29 -0.05 -2.25 -0.14 -2.2 -0.24 -2.13 -0.37 -2.09 -0.46 -2.03 -0.59 -1.95 -0.7 -1.89 -0.82 -1.81 -0.95 -1.74 -1.1 -1.66 -1.23 -1.58 -1.39 -1.51 -1.56 -1.43 -1.72 -1.35 4.36 -6.08 2.2 1.73 2 1.83 1.81 1.97 1.61 2.06 1.42 2.16 1.23 2.24 1.06 2.31 0.88 2.37 0.73 2.41 0.56 2.47 0.43 2.49 0.3 2.55 0.16 2.54 0.05 2.57 -0.05 2.59 -0.15 2.59 -0.25 2.59 -0.33 2.58 -0.39 2.58 -0.48 2.58 -0.53 2.54 -0.58 2.54 -0.63 2.5 -0.68 2.47 -0.7 2.42 -0.73 2.39 -0.76 2.34 -0.76 2.28 -0.77 2.21 -0.76 2.14 -0.76 2.09 -0.75 2 0 0zm-162.44 51.7l2.72 -6.98 0 0.01 5.52 2.06 5.58 1.89 5.63 1.72 5.67 1.53 5.7 1.36 5.7 1.16 5.73 0.96 5.7 0.76 5.7 0.54 5.67 0.33 5.61 0.11 5.58 -0.13 5.51 -0.35 5.42 -0.6 5.36 -0.84 5.25 -1.1 5.16 -1.35 5.02 -1.61 4.91 -1.88 4.77 -2.16 4.63 -2.44 4.48 -2.71 4.31 -3.02 4.15 -3.3 3.96 -3.62 3.78 -3.94 3.58 -4.25 3.39 -4.6 3.16 -4.93 2.94 -5.28 2.7 -5.65 2.45 -6.01 7 2.62 -2.61 6.41 -2.9 6.05 -3.16 5.7 -3.42 5.33 -3.67 4.98 -3.9 4.63 -4.12 4.3 -4.32 3.94 -4.53 3.62 -4.71 3.28 -4.88 2.97 -5.03 2.64 -5.17 2.34 -5.31 2.04 -5.42 1.73 -5.52 1.45 -5.63 1.18 -5.7 0.9 -5.78 0.64 -5.83 0.37 -5.88 0.13 -5.93 -0.11 -5.95 -0.35 -5.96 -0.56 -5.98 -0.8 -5.97 -1 -5.96 -1.22 -5.92 -1.4 -5.91 -1.61 -5.85 -1.78 -5.8 -1.97 -5.72 -2.14 0 0.01zm-19.45 -14.88l-7.48 -0.22 5.56 -3.16 0.71 0.39 0.71 0.4 0.7 0.38 0.71 0.38 0.74 0.39 0.72 0.38 0.7 0.36 0.75 0.38 0.74 0.38 0.72 0.36 0.73 0.36 0.76 0.37 0.75 0.37 0.72 0.35 0.75 0.36 0.76 0.36 0.76 0.35 0.75 0.35 0.75 0.34 0.78 0.35 0.78 0.35 0.76 0.34 0.76 0.32 0.77 0.34 0.79 0.33 0.78 0.33 0.78 0.32 0.8 0.33 0.77 0.32 0.78 0.31 0.81 0.32 0.8 0.31 -2.72 6.98 -0.82 -0.33 -0.81 -0.32 -0.84 -0.33 -0.83 -0.34 -0.8 -0.33 -0.82 -0.34 -0.8 -0.35 -0.79 -0.33 -0.81 -0.34 -0.82 -0.36 -0.8 -0.36 -0.78 -0.35 -0.78 -0.35 -0.81 -0.36 -0.79 -0.37 -0.78 -0.37 -0.76 -0.36 -0.79 -0.36 -0.8 -0.39 -0.75 -0.37 -0.76 -0.37 -0.77 -0.38 -0.78 -0.4 -0.74 -0.38 -0.75 -0.38 -0.78 -0.4 -0.74 -0.4 -0.74 -0.39 -0.75 -0.4 -0.74 -0.4 -0.75 -0.4 -0.73 -0.41 5.56 -3.16zm-7.48 -0.22l0.18 -6.15 5.38 2.99 -5.56 3.16zm-2.4 88.77l-4.08 6.28 -1.63 -3.85 0.44 -2.35 0.42 -2.41 0.42 -2.45 0.41 -2.48 0.38 -2.53 0.38 -2.57 0.35 -2.62 0.35 -2.65 0.34 -2.68 0.32 -2.71 0.31 -2.75 0.3 -2.78 0.29 -2.81 0.27 -2.84 0.26 -2.86 0.25 -2.89 0.24 -2.93 0.23 -2.94 0.22 -2.97 0.21 -2.98 0.19 -3 0.19 -3.04 0.18 -3.03 0.16 -3.05 0.15 -3.07 0.15 -3.09 0.14 -3.1 0.13 -3.11 0.12 -3.12 0.11 -3.12 0.1 -3.13 0.1 -3.14 7.48 0.22 -0.1 3.16 -0.1 3.15 -0.11 3.14 -0.12 3.14 -0.13 3.13 -0.14 3.12 -0.15 3.11 -0.15 3.09 -0.18 3.09 -0.18 3.07 -0.19 3.04 -0.19 3.04 -0.21 3.02 -0.22 2.99 -0.23 2.98 -0.24 2.95 -0.25 2.93 -0.28 2.9 -0.27 2.88 -0.29 2.85 -0.3 2.82 -0.31 2.79 -0.34 2.77 -0.34 2.72 -0.35 2.69 -0.37 2.66 -0.38 2.63 -0.4 2.59 -0.41 2.54 -0.42 2.51 -0.44 2.47 -0.46 2.43 -1.63 -3.85zm-4.08 6.28l-2.11 -1.37 0.48 -2.48 1.63 3.85zm17.14 1.67l-3.66 6.52 0 0 -0.45 -0.25 -0.43 -0.25 -0.43 -0.24 -0.46 -0.27 -0.4 -0.23 -0.45 -0.25 -0.46 -0.28 -0.41 -0.24 -0.43 -0.25 -0.43 -0.26 -0.42 -0.25 -0.42 -0.25 -0.44 -0.26 -0.41 -0.25 -0.45 -0.26 -0.41 -0.26 -0.39 -0.24 -0.46 -0.27 -0.41 -0.26 -0.38 -0.24 -0.44 -0.26 -0.41 -0.26 -0.42 -0.26 -0.43 -0.28 -0.38 -0.24 -0.4 -0.25 -0.44 -0.28 -0.42 -0.27 -0.37 -0.25 -0.4 -0.25 -0.43 -0.27 -0.4 -0.26 4.08 -6.28 0.4 0.26 0.37 0.25 0.4 0.25 0.43 0.27 0.38 0.25 0.38 0.24 0.4 0.25 0.44 0.28 0.37 0.24 0.4 0.24 0.41 0.26 0.38 0.24 0.44 0.26 0.41 0.26 0.36 0.23 0.45 0.26 0.41 0.26 0.39 0.24 0.41 0.25 0.4 0.24 0.42 0.25 0.42 0.25 0.41 0.24 0.43 0.25 0.43 0.26 0.38 0.22 0.41 0.23 0.46 0.27 0.4 0.23 0.43 0.24 0.43 0.25 0.41 0.23 0 0zm241.72 -4.29l4.26 6.14 0 0 -7.21 4.8 -7.31 4.48 -7.41 4.14 -7.49 3.82 -7.58 3.5 -7.64 3.19 -7.71 2.87 -7.79 2.56 -7.83 2.24 -7.89 1.95 -7.92 1.63 -7.97 1.34 -7.99 1.04 -8.02 0.73 -8.04 0.46 -8.05 0.16 -8.06 -0.13 -8.06 -0.41 -8.06 -0.68 -8.05 -0.96 -8.03 -1.24 -8 -1.52 -7.98 -1.77 -7.94 -2.04 -7.9 -2.31 -7.86 -2.55 -7.8 -2.82 -7.75 -3.06 -7.69 -3.33 -7.61 -3.57 -7.55 -3.8 -7.45 -4.05 3.66 -6.52 7.27 3.95 7.33 3.7 7.43 3.47 7.47 3.23 7.53 2.98 7.58 2.74 7.64 2.49 7.68 2.23 7.7 1.98 7.74 1.73 7.76 1.46 7.79 1.2 7.79 0.94 7.8 0.66 7.8 0.39 7.8 0.13 7.79 -0.16 7.76 -0.44 7.76 -0.71 7.71 -1 7.69 -1.3 7.66 -1.57 7.61 -1.87 7.55 -2.18 7.51 -2.46 7.45 -2.77 7.38 -3.07 7.3 -3.38 7.25 -3.7 7.15 -4 7.07 -4.32 6.97 -4.64 0 0zm-76.59 -300.06l3.9 -6.38 0 0 9.15 5.89 9.12 6.49 9.06 7.05 8.93 7.55 8.8 8.06 8.61 8.5 8.37 8.92 8.11 9.3 7.81 9.66 7.46 9.98 7.07 10.26 6.64 10.51 6.17 10.73 5.67 10.91 5.11 11.06 4.51 11.19 3.89 11.27 3.21 11.32 2.49 11.35 1.72 11.33 0.91 11.28 0.05 11.21 -0.85 11.08 -1.78 10.93 -2.78 10.73 -3.81 10.5 -4.89 10.2 -6 9.89 -7.14 9.51 -8.33 9.1 -9.55 8.65 -10.78 8.17 -4.26 -6.14 10.28 -7.79 9.03 -8.19 7.85 -8.58 6.7 -8.93 5.62 -9.25 4.57 -9.54 3.57 -9.82 2.6 -10.05 1.68 -10.27 0.79 -10.46 -0.05 -10.63 -0.87 -10.74 -1.64 -10.83 -2.39 -10.89 -3.09 -10.9 -3.75 -10.89 -4.37 -10.83 -4.97 -10.74 -5.51 -10.63 -6.01 -10.45 -6.48 -10.25 -6.91 -10.02 -7.28 -9.74 -7.63 -9.44 -7.93 -9.1 -8.19 -8.72 -8.41 -8.3 -8.58 -7.86 -8.71 -7.37 -8.8 -6.85 -8.86 -6.29 -8.85 -5.71 0 0zm-209.31 52.27l-6.62 -3.48 0 0 4.62 -8.37 4.84 -7.94 5.05 -7.49 5.24 -7.06 5.45 -6.63 5.63 -6.19 5.82 -5.76 5.99 -5.31 6.17 -4.9 6.34 -4.45 6.48 -4.03 6.64 -3.58 6.77 -3.16 6.91 -2.73 7.03 -2.29 7.14 -1.87 7.26 -1.44 7.36 -1.01 7.44 -0.59 7.52 -0.17 7.6 0.25 7.67 0.66 7.73 1.08 7.78 1.48 7.83 1.91 7.86 2.29 7.91 2.7 7.91 3.1 7.96 3.49 7.95 3.89 7.96 4.28 7.97 4.67 -3.9 6.38 -7.73 -4.53 -7.72 -4.14 -7.69 -3.77 -7.66 -3.37 -7.63 -2.98 -7.59 -2.58 -7.54 -2.21 -7.47 -1.81 -7.42 -1.42 -7.35 -1.02 -7.27 -0.64 -7.2 -0.23 -7.1 0.17 -7.02 0.55 -6.92 0.95 -6.82 1.36 -6.72 1.75 -6.59 2.15 -6.49 2.57 -6.37 2.96 -6.24 3.38 -6.12 3.79 -5.98 4.21 -5.83 4.62 -5.69 5.05 -5.54 5.48 -5.37 5.91 -5.21 6.33 -5.04 6.78 -4.85 7.21 -4.66 7.66 -4.48 8.09 0 0zm-2.98 102.37l7.48 -0.1 -6.84 2.14 -1.83 -2.8 -1.74 -2.84 -1.65 -2.89 -1.57 -2.94 -1.47 -2.98 -1.37 -3.02 -1.28 -3.06 -1.18 -3.11 -1.08 -3.15 -0.98 -3.19 -0.86 -3.22 -0.76 -3.27 -0.63 -3.3 -0.53 -3.33 -0.42 -3.37 -0.29 -3.41 -0.17 -3.43 -0.05 -3.47 0.08 -3.5 0.21 -3.52 0.34 -3.55 0.47 -3.58 0.61 -3.6 0.74 -3.63 0.89 -3.65 1.02 -3.66 1.16 -3.7 1.33 -3.71 1.45 -3.72 1.61 -3.75 1.76 -3.77 1.91 -3.77 6.62 3.48 -1.81 3.57 -1.66 3.55 -1.51 3.53 -1.37 3.5 -1.23 3.47 -1.08 3.44 -0.96 3.44 -0.83 3.39 -0.68 3.37 -0.57 3.34 -0.43 3.3 -0.32 3.29 -0.19 3.26 -0.08 3.22 0.05 3.19 0.15 3.17 0.27 3.13 0.38 3.11 0.49 3.07 0.59 3.04 0.7 3.01 0.8 2.98 0.9 2.95 1 2.91 1.08 2.87 1.2 2.84 1.27 2.82 1.37 2.76 1.45 2.74 1.55 2.69 1.62 2.66 1.71 2.62 -6.84 2.14zm7.48 -0.1l0.16 12.54 -7 -10.4 6.84 -2.14zm-9.95 -93.26l7.48 0 0 -0.13 0.06 1.79 0.07 1.89 0.06 1.99 0.08 2.08 0.07 2.16 0.08 2.26 0.08 2.34 0.08 2.42 0.09 2.5 0.08 2.59 0.09 2.64 0.09 2.74 0.09 2.79 0.09 2.87 0.09 2.94 0.09 2.99 0.09 3.05 0.09 3.12 0.08 3.16 0.09 3.22 0.08 3.26 0.09 3.32 0.08 3.37 0.08 3.41 0.07 3.44 0.07 3.49 0.07 3.52 0.07 3.55 0.06 3.59 0.06 3.6 0.05 3.65 0.05 3.65 -7.48 0.1 -0.05 -3.65 -0.05 -3.63 -0.06 -3.6 -0.06 -3.57 -0.07 -3.55 -0.07 -3.52 -0.07 -3.47 -0.07 -3.44 -0.08 -3.39 -0.08 -3.35 -0.09 -3.32 -0.08 -3.26 -0.09 -3.22 -0.08 -3.16 -0.09 -3.1 -0.09 -3.05 -0.09 -2.99 -0.09 -2.92 -0.09 -2.87 -0.09 -2.79 -0.09 -2.72 -0.09 -2.66 -0.08 -2.57 -0.09 -2.5 -0.08 -2.42 -0.08 -2.34 -0.08 -2.26 -0.07 -2.16 -0.08 -2.08 -0.06 -1.99 -0.07 -1.89 -0.06 -1.79 0 -0.13zm0 0.13l0 0 0 -0.13 0 0.13zm22.44 -22.57l0 7.48 0 0 -0.76 0.02 -0.76 0.06 -0.77 0.1 -0.73 0.13 -0.72 0.16 -0.72 0.21 -0.68 0.22 -0.68 0.28 -0.66 0.29 -0.63 0.33 -0.67 0.38 -0.6 0.38 -0.57 0.4 -0.56 0.44 -0.53 0.48 -0.54 0.51 -0.5 0.53 -0.48 0.53 -0.44 0.56 -0.4 0.57 -0.38 0.6 -0.38 0.67 -0.33 0.63 -0.29 0.66 -0.28 0.68 -0.22 0.68 -0.21 0.72 -0.16 0.72 -0.13 0.73 -0.1 0.77 -0.06 0.76 -0.02 0.76 -7.48 0 0.02 -1.16 0.1 -1.14 0.14 -1.11 0.19 -1.11 0.26 -1.08 0.29 -1.06 0.36 -1.06 0.4 -1.02 0.45 -1 0.51 -0.97 0.52 -0.91 0.58 -0.92 0.64 -0.89 0.68 -0.86 0.7 -0.81 0.74 -0.77 0.76 -0.73 0.81 -0.7 0.86 -0.68 0.89 -0.64 0.92 -0.58 0.91 -0.52 0.97 -0.51 1 -0.45 1.02 -0.4 1.06 -0.36 1.06 -0.29 1.08 -0.26 1.11 -0.19 1.11 -0.14 1.14 -0.1 1.16 -0.02 0 0zm22.45 22.34l-7.48 0.2 0 -0.1 -0.02 -0.76 -0.06 -0.76 -0.1 -0.77 -0.13 -0.73 -0.16 -0.72 -0.2 -0.7 -0.24 -0.7 -0.27 -0.68 -0.3 -0.66 -0.33 -0.65 -0.36 -0.63 -0.39 -0.6 -0.42 -0.6 -0.43 -0.56 -0.47 -0.52 -0.5 -0.53 -0.53 -0.5 -0.54 -0.48 -0.57 -0.45 -0.57 -0.4 -0.61 -0.39 -0.65 -0.37 -0.63 -0.33 -0.67 -0.29 -0.68 -0.28 -0.68 -0.22 -0.72 -0.21 -0.72 -0.16 -0.73 -0.13 -0.77 -0.1 -0.76 -0.06 -0.76 -0.02 0 -7.48 1.16 0.02 1.14 0.1 1.11 0.14 1.11 0.19 1.08 0.26 1.06 0.29 1.06 0.36 1.02 0.4 0.99 0.45 0.99 0.51 0.91 0.53 0.91 0.57 0.89 0.64 0.85 0.67 0.82 0.7 0.77 0.74 0.74 0.77 0.71 0.82 0.67 0.86 0.62 0.86 0.59 0.92 0.54 0.95 0.49 0.95 0.46 1 0.39 1.02 0.36 1.04 0.3 1.08 0.26 1.08 0.19 1.11 0.14 1.11 0.1 1.14 0.02 1.16 0 -0.1zm-7.48 0.2l0 0 0 -0.1 0 0.1zm-19.16 284.75l-4.4 -6.04 -0.01 0 0.21 -0.15 0.23 -0.19 0.3 -0.24 0.21 -0.17 0.23 -0.22 0.22 -0.19 0.23 -0.23 0.27 -0.26 0.23 -0.24 0.21 -0.22 0.23 -0.26 0.26 -0.29 0.23 -0.27 0.23 -0.28 0.24 -0.3 0.25 -0.32 0.22 -0.28 0.21 -0.29 0.25 -0.35 0.25 -0.35 0.23 -0.34 0.23 -0.35 0.22 -0.34 0.23 -0.36 0.23 -0.38 0.24 -0.4 0.22 -0.38 0.2 -0.37 0.24 -0.42 0.23 -0.43 0.22 -0.42 0.22 -0.42 6.66 3.42 -0.26 0.5 -0.26 0.48 -0.25 0.45 -0.24 0.46 -0.28 0.49 -0.28 0.46 -0.26 0.44 -0.27 0.44 -0.27 0.44 -0.28 0.44 -0.29 0.43 -0.29 0.42 -0.27 0.39 -0.27 0.39 -0.31 0.43 -0.32 0.42 -0.29 0.36 -0.3 0.38 -0.31 0.36 -0.31 0.37 -0.3 0.33 -0.31 0.36 -0.35 0.36 -0.33 0.34 -0.31 0.3 -0.33 0.33 -0.36 0.33 -0.35 0.3 -0.37 0.31 -0.3 0.24 -0.35 0.29 -0.39 0.29 -0.01 0zm-68.63 -59.28l7.12 -2.3 0 0 0.62 1.89 0.73 2.1 0.85 2.32 0.93 2.5 1.04 2.64 1.13 2.75 1.24 2.87 1.31 2.95 1.41 3 1.5 3.03 1.57 3.04 1.66 3.03 1.74 2.99 1.8 2.93 1.87 2.82 1.94 2.73 2.01 2.59 2.05 2.43 2.1 2.25 2.13 2.03 2.17 1.82 2.2 1.57 2.19 1.3 2.2 1.03 2.2 0.74 2.21 0.46 2.21 0.16 2.26 -0.15 2.31 -0.47 2.4 -0.85 2.51 -1.26 2.62 -1.7 4.4 6.04 -3.28 2.14 -3.31 1.66 -3.32 1.17 -3.33 0.69 -3.28 0.21 -3.23 -0.24 -3.13 -0.64 -3.02 -1.02 -2.92 -1.35 -2.79 -1.66 -2.68 -1.91 -2.57 -2.16 -2.47 -2.35 -2.38 -2.55 -2.27 -2.69 -2.19 -2.83 -2.1 -2.95 -2.01 -3.04 -1.92 -3.11 -1.84 -3.15 -1.74 -3.19 -1.65 -3.18 -1.56 -3.17 -1.47 -3.12 -1.37 -3.07 -1.28 -2.97 -1.17 -2.87 -1.08 -2.74 -0.97 -2.58 -0.87 -2.4 -0.77 -2.22 -0.66 -1.99 0 0zm34.21 -26.92l-3.82 6.44 0 0 -1.42 -0.79 -1.39 -0.65 -1.38 -0.52 -1.36 -0.42 -1.33 -0.31 -1.27 -0.19 -1.26 -0.09 -1.24 0 -1.18 0.09 -1.15 0.18 -1.11 0.26 -1.06 0.35 -1.04 0.42 -0.96 0.49 -0.92 0.57 -0.88 0.64 -0.82 0.71 -0.76 0.77 -0.71 0.83 -0.64 0.9 -0.57 0.94 -0.5 1.02 -0.44 1.07 -0.35 1.1 -0.28 1.2 -0.2 1.23 -0.09 1.25 0 1.34 0.09 1.39 0.2 1.41 0.32 1.48 0.43 1.51 -7.12 2.3 -0.57 -1.99 -0.42 -1.98 -0.28 -1.95 -0.13 -1.91 0 -1.88 0.15 -1.85 0.28 -1.79 0.4 -1.72 0.53 -1.7 0.66 -1.59 0.76 -1.54 0.89 -1.46 0.98 -1.38 1.09 -1.29 1.18 -1.19 1.28 -1.09 1.34 -0.98 1.44 -0.89 1.52 -0.77 1.56 -0.64 1.62 -0.53 1.69 -0.4 1.73 -0.28 1.76 -0.13 1.78 0 1.84 0.13 1.85 0.29 1.85 0.43 1.86 0.56 1.86 0.72 1.87 0.87 1.84 1.01 0 0zm15.23 16.72l7.44 0.78 -5.9 2.65 -0.64 -0.46 -0.63 -0.45 -0.65 -0.46 -0.64 -0.46 -0.62 -0.44 -0.65 -0.45 -0.65 -0.46 -0.63 -0.45 -0.63 -0.44 -0.63 -0.44 -0.64 -0.44 -0.64 -0.44 -0.65 -0.44 -0.64 -0.44 -0.64 -0.43 -0.63 -0.43 -0.63 -0.42 -0.67 -0.44 -0.62 -0.42 -0.65 -0.41 -0.67 -0.45 -0.63 -0.41 -0.63 -0.4 -0.66 -0.42 -0.64 -0.41 -0.64 -0.4 -0.65 -0.41 -0.67 -0.41 -0.66 -0.41 -0.65 -0.39 -0.65 -0.39 -0.66 -0.39 3.82 -6.44 0.68 0.41 0.69 0.41 0.69 0.43 0.66 0.41 0.67 0.41 0.67 0.41 0.68 0.42 0.68 0.43 0.66 0.42 0.69 0.44 0.67 0.45 0.63 0.41 0.67 0.43 0.68 0.46 0.63 0.42 0.67 0.44 0.67 0.45 0.66 0.45 0.64 0.44 0.65 0.44 0.66 0.46 0.64 0.44 0.67 0.46 0.65 0.46 0.65 0.45 0.65 0.46 0.63 0.45 0.66 0.46 0.64 0.46 0.65 0.46 0.65 0.47 0.64 0.46 -5.9 2.65zm7.44 0.78l-0.67 6.41 -5.23 -3.76 5.9 -2.65zm-2.76 -94.1l5.3 -5.28 1.09 2.64 0 3.25 0 3.26 -0.01 3.26 -0.02 3.25 -0.02 3.25 -0.03 3.24 -0.03 3.24 -0.04 3.23 -0.05 3.22 -0.06 3.21 -0.06 3.2 -0.07 3.18 -0.08 3.16 -0.08 3.13 -0.09 3.12 -0.1 3.12 -0.11 3.07 -0.12 3.06 -0.13 3.02 -0.13 3.01 -0.15 2.97 -0.15 2.93 -0.17 2.91 -0.17 2.88 -0.19 2.84 -0.19 2.79 -0.2 2.76 -0.21 2.74 -0.23 2.68 -0.23 2.62 -0.25 2.6 -0.26 2.54 -7.44 -0.78 0.26 -2.5 0.23 -2.54 0.23 -2.6 0.23 -2.64 0.21 -2.68 0.2 -2.72 0.19 -2.77 0.19 -2.82 0.17 -2.82 0.15 -2.89 0.15 -2.91 0.15 -2.95 0.13 -2.97 0.13 -3 0.12 -3.04 0.11 -3.05 0.1 -3.08 0.09 -3.1 0.08 -3.13 0.08 -3.14 0.07 -3.16 0.06 -3.18 0.06 -3.19 0.05 -3.2 0.04 -3.21 0.03 -3.22 0.03 -3.24 0.02 -3.23 0.02 -3.25 0.01 -3.24 0 -3.24 0 -3.25 1.09 2.64zm5.3 -5.28l1.09 1.09 0 1.55 -1.09 -2.64zm-19.65 -150.99l6.44 3.8 0 0 -3.05 5.36 -2.77 5.33 -2.55 5.31 -2.28 5.27 -2.04 5.22 -1.8 5.2 -1.57 5.14 -1.32 5.11 -1.1 5.06 -0.86 5.02 -0.65 4.97 -0.42 4.91 -0.2 4.86 0.01 4.82 0.23 4.75 0.43 4.7 0.64 4.65 0.84 4.58 1.05 4.52 1.23 4.46 1.44 4.39 1.63 4.33 1.82 4.26 2 4.19 2.19 4.12 2.38 4.05 2.54 3.97 2.74 3.89 2.9 3.82 3.08 3.72 3.25 3.65 3.42 3.56 -5.3 5.28 -3.6 -3.76 -3.45 -3.85 -3.26 -3.96 -3.08 -4.04 -2.9 -4.13 -2.72 -4.23 -2.52 -4.31 -2.35 -4.4 -2.14 -4.49 -1.94 -4.56 -1.75 -4.63 -1.54 -4.71 -1.33 -4.78 -1.11 -4.84 -0.9 -4.92 -0.7 -4.97 -0.45 -5.04 -0.25 -5.09 -0.01 -5.14 0.22 -5.2 0.44 -5.23 0.69 -5.29 0.92 -5.32 1.16 -5.38 1.4 -5.39 1.65 -5.44 1.9 -5.46 2.14 -5.5 2.4 -5.51 2.65 -5.55 2.91 -5.57 3.17 -5.58 0 0zm311.91 310.61l-3.92 -6.38 0 0 20.31 -14.35 16.76 -15.67 13.4 -16.85 10.24 -17.84 7.24 -18.71 4.42 -19.43 1.74 -20 -0.79 -20.41 -3.18 -20.65 -5.43 -20.71 -7.52 -20.6 -9.45 -20.31 -11.23 -19.83 -12.86 -19.19 -14.33 -18.35 -15.62 -17.34 -16.76 -16.16 -17.74 -14.79 -18.55 -13.25 -19.2 -11.55 -19.67 -9.67 -19.99 -7.61 -20.15 -5.4 -20.12 -3.02 -19.95 -0.49 -19.63 2.2 -19.17 5.05 -18.58 8.08 -17.87 11.29 -17.01 14.7 -16.01 18.31 -14.85 22.12 -6.44 -3.8 15.35 -22.86 16.67 -19.07 17.83 -15.4 18.81 -11.89 19.64 -8.54 20.25 -5.35 20.69 -2.32 20.93 0.51 21 3.16 20.91 5.6 20.67 7.87 20.27 9.97 19.72 11.85 19.03 13.59 18.16 15.15 17.14 16.52 15.98 17.74 14.65 18.77 13.16 19.63 11.53 20.35 9.71 20.87 7.74 21.22 5.61 21.43 3.3 21.45 0.83 21.31 -1.82 20.98 -4.66 20.45 -7.66 19.75 -10.8 18.84 -14.1 17.71 -17.54 16.41 -21.09 14.91 0 0zm-273.38 -3.87l-6.66 -3.42 5.19 -1.54 8.18 4.53 8.23 4.29 8.28 4.02 8.31 3.76 8.36 3.5 8.4 3.23 8.43 2.96 8.46 2.68 8.49 2.41 8.52 2.12 8.53 1.84 8.56 1.56 8.56 1.26 8.57 0.97 8.6 0.67 8.58 0.37 8.6 0.06 8.6 -0.24 8.58 -0.55 8.59 -0.86 8.57 -1.19 8.57 -1.49 8.55 -1.83 8.53 -2.15 8.51 -2.49 8.49 -2.82 8.46 -3.15 8.43 -3.51 8.4 -3.84 8.37 -4.19 8.33 -4.56 8.29 -4.91 3.92 6.38 -8.51 5.03 -8.55 4.68 -8.61 4.31 -8.64 3.96 -8.69 3.61 -8.72 3.25 -8.73 2.9 -8.79 2.57 -8.79 2.21 -8.83 1.89 -8.83 1.55 -8.85 1.21 -8.85 0.9 -8.86 0.57 -8.86 0.24 -8.86 -0.06 -8.86 -0.39 -8.84 -0.69 -8.83 -0.99 -8.82 -1.3 -8.8 -1.6 -8.77 -1.9 -8.74 -2.18 -8.71 -2.47 -8.68 -2.74 -8.65 -3.04 -8.6 -3.31 -8.56 -3.58 -8.51 -3.84 -8.46 -4.12 -8.41 -4.37 -8.36 -4.63 5.19 -1.54zm-6.66 -3.42l1.79 -3.49 3.4 1.95 -5.19 1.54z"/>
     <path id="1" class="fil1" d="M30516 8158.64c0.58,22.06 2.82,75.15 1.94,129.59 56.62,38.53 141.32,42.93 171,-15.64 12.36,-24.4 23.15,-51.79 7.69,-76.29 21.98,15.81 10.83,50.06 3.06,70.78 -25.59,68.27 -97.97,72.78 -157.58,49.52 -8.67,-3.38 -16.87,-7.23 -24.55,-11.5 -0.97,33.59 -3.32,66.52 -8.18,91.8 4.25,2.76 8.65,5.47 13.27,8.07 78.09,43.89 170.54,47.62 245.68,-4.48 119.1,-82.56 19.22,-247.71 -76.77,-306.32 -83.74,-51.12 -167.18,-36.47 -214.57,53.72 -20.65,39.3 -15.21,75.4 4.07,104.06 -0.49,-39.1 -1.84,-74.71 -2.47,-93.31 0,-10.33 8.37,-18.7 18.7,-18.7 10.33,0 18.71,8.37 18.71,18.7zm-16.56 270.81c-2.52,4.92 -5.35,8.68 -8.54,11.02 -31.69,23.12 -56.6,-37.96 -62.87,-57.41 -6.07,-18.87 11.31,-32.89 28.74,-22.55 7.17,4.25 14.01,8.97 20.86,13.89 2.79,-26.63 3.65,-61.69 3.61,-96.35 -38.36,-38.52 -48.29,-93.22 -13.78,-151.73 153.83,-260.82 547.03,157.63 306.73,305.52 -89.33,54.98 -186.87,47.86 -274.75,-2.39z"/>
    </g>
   </g>
   <path class="fil2" d="M30497.29 8158.64c0,8.91 16.04,356.76 -39.48,248.64 -61.52,-119.79 85.21,129.09 297.54,18.22 248.31,-129.65 -142.74,-554.95 -286.66,-281.98 -75.86,143.88 173.9,243.61 223.89,130.68 9.14,-20.66 24.61,-59.78 4.05,-77.9"/>
   <path class="fil3" d="M30798.22 8183.48c42.59,60.87 48.44,127.44 17.54,199.72 42.6,-67.78 36.75,-134.36 -17.54,-199.72z"/>
   <path class="fil3" d="M30488.17 8151.61c24.18,-7.52 31.44,28.28 21.77,107.38 2.16,-67.76 -5.1,-103.55 -21.77,-107.38z"/>
   <path class="fil3" d="M30513.4 8316.4c-15.06,75.42 -31.56,112.37 -49.48,110.85 27.28,22.25 43.78,-14.7 49.48,-110.85z"/>
   <path class="fil3" d="M30459.46 8179.08c-12.98,89.9 34.5,137.83 142.44,143.78 -95.71,-18.09 -143.19,-66.02 -142.44,-143.78z"/>
   <path class="fil3" d="M30522.14 8078.77c73.05,-44.43 147.66,-28.31 223.84,48.35 -77.1,-66.31 -151.71,-82.42 -223.84,-48.35z"/>
   <path class="fil3" d="M30802.64 8400.28c-98.23,55.2 -180.17,68.06 -245.81,38.57 76.46,43.04 158.4,30.18 245.81,-38.57z"/>
  </g>
  <path class="fil3" d="M31978.34 8173.53c42.59,60.87 48.44,127.44 17.54,199.72 42.6,-67.78 36.75,-134.36 -17.54,-199.72z"/>
  <path class="fil3" d="M31668.29 8141.66c24.18,-7.52 31.44,28.28 21.77,107.38 2.16,-67.76 -5.1,-103.55 -21.77,-107.38z"/>
  <path class="fil3" d="M31693.52 8306.45c-15.06,75.42 -31.56,112.37 -49.48,110.85 27.28,22.25 43.78,-14.7 49.48,-110.85z"/>
  <path class="fil3" d="M31639.58 8169.13c-12.98,89.9 34.5,137.83 142.44,143.78 -95.71,-18.09 -143.19,-66.02 -142.44,-143.78z"/>
  <path class="fil3" d="M31702.26 8068.82c73.05,-44.43 147.66,-28.31 223.84,48.35 -77.1,-66.31 -151.71,-82.42 -223.84,-48.35z"/>
  <path class="fil3" d="M31982.76 8390.33c-98.23,55.2 -180.17,68.06 -245.81,38.57 76.46,43.04 158.4,30.18 245.81,-38.57z"/>
  <g>
   <g id="_1787595607680">
    <path class="fil4 str0" d="M31055.71 8158.64c0.58,22.06 2.82,75.15 1.94,129.59 56.62,38.53 141.32,42.93 171,-15.64 12.36,-24.4 23.15,-51.79 7.69,-76.29 21.98,15.81 10.83,50.06 3.06,70.78 -25.59,68.27 -97.97,72.78 -157.58,49.52 -8.67,-3.38 -16.87,-7.23 -24.55,-11.5 -0.97,33.59 -3.32,66.52 -8.18,91.8 4.25,2.76 8.65,5.47 13.27,8.07 78.09,43.89 170.54,47.62 245.68,-4.48 119.1,-82.56 19.22,-247.71 -76.77,-306.32 -83.74,-51.12 -167.18,-36.47 -214.57,53.72 -20.65,39.3 -15.21,75.4 4.07,104.06 -0.49,-39.1 -1.84,-74.71 -2.47,-93.31 0,-10.33 8.37,-18.7 18.7,-18.7 10.33,0 18.71,8.37 18.71,18.7zm-16.56 270.81c-2.52,4.92 -5.35,8.68 -8.54,11.02 -31.69,23.12 -56.6,-37.96 -62.87,-57.41 -6.07,-18.87 11.31,-32.89 28.74,-22.55 7.17,4.25 14.01,8.97 20.86,13.89 2.79,-26.63 3.65,-61.69 3.61,-96.35 -38.36,-38.52 -48.29,-93.22 -13.78,-151.73 153.83,-260.82 547.03,157.63 306.73,305.52 -89.33,54.98 -186.87,47.86 -274.75,-2.39z"/>
   </g>
   <path class="fil2" d="M31037 8158.64c0,8.91 16.04,356.76 -39.48,248.64 -61.52,-119.79 85.21,129.09 297.54,18.22 248.31,-129.65 -142.74,-554.95 -286.66,-281.98 -75.86,143.88 173.9,243.61 223.89,130.68 9.14,-20.66 24.61,-59.78 4.05,-77.9"/>
   <path class="fil3" d="M31337.93 8183.48c42.59,60.87 48.44,127.44 17.54,199.72 42.6,-67.78 36.75,-134.36 -17.54,-199.72z"/>
   <path class="fil3" d="M31027.88 8151.61c24.18,-7.52 31.44,28.28 21.77,107.38 2.16,-67.76 -5.1,-103.55 -21.77,-107.38z"/>
   <path class="fil3" d="M31053.11 8316.4c-15.06,75.42 -31.56,112.37 -49.48,110.85 27.28,22.25 43.78,-14.7 49.48,-110.85z"/>
   <path class="fil3" d="M30999.17 8179.08c-12.98,89.9 34.5,137.83 142.44,143.78 -95.71,-18.09 -143.19,-66.02 -142.44,-143.78z"/>
   <path class="fil3" d="M31061.85 8078.77c73.05,-44.43 147.66,-28.31 223.84,48.35 -77.1,-66.31 -151.71,-82.42 -223.84,-48.35z"/>
   <path class="fil3" d="M31342.35 8400.28c-98.23,55.2 -180.17,68.06 -245.81,38.57 76.46,43.04 158.4,30.18 245.81,-38.57z"/>
  </g>
 </g>
</svg>
